<svg xmlns="http://www.w3.org/2000/svg" fill="none" viewBox="0 0 2076 805">
  <g clip-path="url(#clip0)">
    <path
      fill="#212327"
      d="M1879.41 515.452C1824.35 515.452 1792.96 479.086 1792.96 395.336C1792.96 327.563 1823.25 269.158 1890.43 269.158C1947.7 269.158 1973.58 322.053 1973.58 395.336C1973.58 464.21 1945.49 515.452 1879.41 515.452ZM913.55 524.819C858.484 524.819 827.096 479.086 827.096 395.336C827.096 327.563 857.383 269.158 924.564 269.158C981.832 269.158 1007.71 322.053 1007.71 395.336C1007.71 464.21 979.63 524.819 913.55 524.819ZM2057.28 179.346C2042.96 179.346 1996.7 196.427 1974.68 205.794C1953.2 188.162 1922.92 169.979 1877.76 169.979C1752.21 169.979 1683.38 277.423 1683.38 395.336C1683.38 427.293 1687.23 455.394 1694.94 480.188C1675.67 504.983 1650.89 524.268 1627.21 524.268C1597.47 524.268 1591.97 506.085 1591.97 472.475V325.91C1591.97 217.916 1530.84 169.979 1447.14 169.979C1395.93 169.979 1357.94 185.407 1324.34 206.345C1302.87 196.978 1255.51 179.346 1240.64 179.346C1224.12 179.346 1221.92 192.019 1221.92 214.059V487.902C1204.85 507.738 1180.62 525.37 1154.19 525.37C1121.7 525.37 1110.14 506.085 1110.14 471.924V214.61C1110.14 192.57 1107.93 179.897 1091.41 179.897C1077.1 179.897 1030.84 196.978 1008.81 206.345C987.339 188.713 957.053 170.53 911.898 170.53C786.347 170.53 717.514 278.525 717.514 395.887C717.514 430.048 721.92 460.353 729.629 486.8C706.501 509.391 680.069 524.819 653.637 524.819C617.844 524.819 608.483 502.228 608.483 460.904V54.2708C608.483 38.843 606.831 27.8231 588.108 19.5582C574.342 12.9463 539.65 0.273438 524.782 0.273438C507.161 0.273438 501.104 14.0483 501.104 30.5781V474.128C501.104 563.939 547.359 623.447 632.712 623.447C694.386 623.447 738.439 603.06 776.435 570C810.026 605.815 854.079 623.998 900.885 622.896C963.661 621.794 1004.41 598.101 1031.94 568.898C1053.42 603.611 1088.66 623.447 1128.31 623.447C1165.2 623.447 1196.04 612.427 1223.02 593.693C1223.57 611.876 1227.43 620.141 1249.45 620.141H1301.22C1328.75 620.141 1328.75 606.366 1328.75 589.285V359.521C1328.75 306.626 1368.4 272.464 1417.96 272.464C1467.52 272.464 1486.79 306.626 1486.79 360.623V479.637C1486.79 571.653 1518.18 623.447 1610.14 623.447C1661.9 623.447 1704.3 604.162 1742.3 562.286C1775.89 596.448 1820.49 613.529 1866.75 613.529C1908.6 613.529 1942.74 599.754 1970.27 579.918V608.57C1970.27 666.424 1947.7 701.688 1897.59 701.688C1845.27 701.688 1814.44 686.26 1785.8 672.485C1776.99 668.077 1763.77 669.179 1757.17 680.75C1747.8 696.178 1739.54 714.361 1733.49 727.584C1724.68 746.318 1721.37 758.44 1752.21 773.868C1784.7 789.847 1840.87 805.825 1899.24 805.825C2012.67 805.825 2076.55 739.155 2076.55 632.814V214.61C2076 192.019 2073.8 179.346 2057.28 179.346ZM66.6305 155.654C66.6305 68.0456 134.913 0.273438 247.248 0.273438C299.01 0.273438 363.438 23.9661 398.68 59.2297C405.839 66.3926 406.94 74.6575 399.782 84.5754C390.42 96.6972 370.046 125.9 360.134 134.716C350.222 144.083 337.557 141.879 326.543 135.267C303.416 120.941 279.737 104.962 245.045 104.962C207.6 104.962 178.966 124.247 178.966 155.654C178.966 201.386 222.468 215.161 300.662 249.873C377.204 283.484 440.531 330.869 440.531 438.864C440.531 549.063 357.381 628.406 232.931 628.406C114.538 628.406 30.2867 552.369 1.10156 435.007C-2.75308 419.028 3.30422 408.008 17.6215 403.049C35.7933 395.887 58.3705 388.724 79.2957 383.214C97.4676 378.255 105.177 385.969 108.481 398.642C116.741 428.946 126.102 454.843 141.521 477.434C161.345 506.085 194.384 526.472 238.437 526.472C288.548 526.472 329.847 499.473 329.847 437.211C329.847 416.824 322.689 399.192 308.922 384.316C291.301 365.031 263.768 349.052 227.975 333.073C109.032 280.729 66.6305 237.201 66.6305 155.654Z"
    ></path>
  </g>
  <defs>
    <clipPath id="clip0">
      <rect
        width="2076"
        height="804.45"
        fill="white"
        transform="translate(0 0.273438)"
      ></rect>
    </clipPath>
  </defs>
</svg>